<?xml version="1.0" standalone="no"?>
<!DOCTYPE svg PUBLIC "-//W3C//DTD SVG 20010904//EN"
 "http://www.w3.org/TR/2001/REC-SVG-20010904/DTD/svg10.dtd">
<svg version="1.0" xmlns="http://www.w3.org/2000/svg"
 width="90.000000pt" height="90.000000pt" viewBox="0 0 90.000000 90.000000"
 preserveAspectRatio="xMidYMid meet">
<metadata>
Created by potrace 1.11, written by Peter Selinger 2001-2013
</metadata>
<g transform="translate(0.000000,90.000000) scale(0.100000,-0.100000)"
fill="#000000" stroke="none">
<path d="M112 498 c-28 -28 -11 -68 34 -82 21 -7 22 -5 25 50 2 38 -34 57 -59
32z m41 -20 c6 -19 -3 -38 -19 -38 -8 0 -14 10 -14 25 0 26 25 35 33 13z"/>
<path d="M200 476 c0 -40 24 -65 48 -49 19 11 30 83 13 83 -6 0 -11 -16 -11
-35 0 -24 -5 -35 -15 -35 -10 0 -15 11 -15 35 0 19 -4 35 -10 35 -5 0 -10 -15
-10 -34z"/>
<path d="M307 465 c-17 -49 -16 -51 13 -32 17 10 22 9 30 -3 5 -8 12 -11 16
-8 8 9 -20 81 -34 86 -5 1 -17 -18 -25 -43z m33 0 c0 -8 -4 -15 -10 -15 -5 0
-7 7 -4 15 4 8 8 15 10 15 2 0 4 -7 4 -15z"/>
<path d="M397 503 c-11 -10 -8 -83 3 -83 6 0 10 12 10 28 l1 27 20 -27 c29
-39 39 -35 39 17 0 49 -16 62 -22 18 l-4 -28 -14 28 c-13 27 -21 32 -33 20z"/>
<path d="M490 500 c0 -5 7 -10 15 -10 10 0 15 -11 15 -35 0 -19 5 -35 10 -35
6 0 10 16 10 35 0 19 5 35 10 35 6 0 10 5 10 10 0 6 -16 10 -35 10 -19 0 -35
-4 -35 -10z"/>
<path d="M590 471 c0 -31 4 -41 20 -46 12 -4 27 -1 35 5 17 14 21 80 5 80 -5
0 -10 -16 -10 -35 0 -24 -5 -35 -15 -35 -10 0 -15 11 -15 35 0 19 -4 35 -10
35 -5 0 -10 -18 -10 -39z"/>
<path d="M687 503 c-11 -10 -8 -83 3 -83 6 0 10 12 11 28 l1 27 11 -27 c6 -16
14 -28 18 -28 4 0 12 12 17 28 l10 27 1 -27 c2 -47 21 -31 21 17 0 54 -24 63
-36 13 l-7 -33 -14 33 c-13 31 -23 39 -36 25z"/>
</g>
</svg>
